<svg viewBox="0 0 30 30">
<path d="M15 0C6.72914 0 0 6.72914 0 15C0 23.2709 6.72914 30 15 30C23.2709 30 30 23.2709 30 15C30 6.72914 23.2709 0 15 0ZM23.75 15.625C23.75 15.9705 23.4704 16.25 23.125 16.25H16.25V23.125C16.25 23.4705 15.9704 23.75 15.625 23.75H14.375C14.0295 23.75 13.75 23.4705 13.75 23.125V16.25H6.87498C6.52951 16.25 6.24996 15.9704 6.24996 15.625V14.375C6.24996 14.0295 6.52951 13.75 6.87498 13.75H13.75V6.87498C13.75 6.52951 14.0295 6.24996 14.375 6.24996H15.625C15.9704 6.24996 16.25 6.52951 16.25 6.87498V13.75H23.125C23.4704 13.75 23.75 14.0295 23.75 14.375V15.625V15.625Z"/>
</svg>
