<svg width="28" height="24" viewBox="0 0 28 24" fill="none" xmlns="http://www.w3.org/2000/svg">
<path d="M24 0H4C1.79086 0 0 1.79086 0 4V20C0 22.2091 1.79086 24 4 24H24C26.2091 24 28 22.2091 28 20V4C28 1.79086 26.2091 0 24 0Z" fill="#D8E1EF"/>
<path d="M28 4V6H0V4C0 2.93913 0.421427 1.92172 1.17157 1.17157C1.92172 0.421427 2.93913 0 4 0H24C25.0609 0 26.0783 0.421427 26.8284 1.17157C27.5786 1.92172 28 2.93913 28 4Z" fill="#0593FF"/>
<path d="M11 4C11.5523 4 12 3.55228 12 3C12 2.44772 11.5523 2 11 2C10.4477 2 10 2.44772 10 3C10 3.55228 10.4477 4 11 4Z" fill="#0E6AE0"/>
<path d="M8 4C8.55228 4 9 3.55228 9 3C9 2.44772 8.55228 2 8 2C7.44772 2 7 2.44772 7 3C7 3.55228 7.44772 4 8 4Z" fill="#0E6AE0"/>
<path d="M5 4C5.55228 4 6 3.55228 6 3C6 2.44772 5.55228 2 5 2C4.44772 2 4 2.44772 4 3C4 3.55228 4.44772 4 5 4Z" fill="#0E6AE0"/>
<path d="M16 19H12C11.7348 19 11.4804 18.8946 11.2929 18.7071C11.1054 18.5196 11 18.2652 11 18C11 17.7348 11.1054 17.4804 11.2929 17.2929C11.4804 17.1054 11.7348 17 12 17H16C16.2652 17 16.5196 17.1054 16.7071 17.2929C16.8946 17.4804 17 17.7348 17 18C17 18.2652 16.8946 18.5196 16.7071 18.7071C16.5196 18.8946 16.2652 19 16 19Z" fill="#0E6AE0"/>
<path d="M18 12.68L17 9.67999C16.9304 9.47301 16.795 9.29449 16.6144 9.1717C16.4339 9.04891 16.2181 8.9886 16 8.99999H12C11.7904 8.99945 11.5858 9.06481 11.4154 9.18683C11.2449 9.30885 11.1171 9.48137 11.05 9.67999L10.05 12.68C10.0004 12.8304 9.98725 12.9904 10.0116 13.1469C10.0359 13.3033 10.0971 13.4518 10.19 13.58C10.282 13.7092 10.4035 13.8147 10.5443 13.8878C10.6852 13.9608 10.8414 13.9993 11 14H17C17.1587 13.9993 17.3149 13.9608 17.4557 13.8878C17.5965 13.8147 17.718 13.7092 17.81 13.58C17.9114 13.4561 17.9816 13.3097 18.0146 13.1531C18.0477 12.9965 18.0427 12.8343 18 12.68V12.68Z" fill="#0593FF"/>
<path d="M19 14H9C8.73478 14 8.48043 13.8946 8.29289 13.7071C8.10536 13.5196 8 13.2652 8 13C8 12.7348 8.10536 12.4804 8.29289 12.2929C8.48043 12.1054 8.73478 12 9 12H19C19.2652 12 19.5196 12.1054 19.7071 12.2929C19.8946 12.4804 20 12.7348 20 13C20 13.2652 19.8946 13.5196 19.7071 13.7071C19.5196 13.8946 19.2652 14 19 14Z" fill="#0E6AE0"/>
<path d="M10 21C11.6569 21 13 19.6569 13 18C13 16.3431 11.6569 15 10 15C8.34315 15 7 16.3431 7 18C7 19.6569 8.34315 21 10 21Z" fill="#0593FF"/>
<path d="M18 21C19.6569 21 21 19.6569 21 18C21 16.3431 19.6569 15 18 15C16.3431 15 15 16.3431 15 18C15 19.6569 16.3431 21 18 21Z" fill="#0593FF"/>
</svg>
