<svg width="19" height="31" viewBox="0 0 19 31" fill="none" xmlns="http://www.w3.org/2000/svg">
<path d="M6.11986 15.5066L17.7169 3.90902C18.0362 3.59046 18.2119 3.16452 18.2119 2.71036C18.2119 2.25594 18.0362 1.83026 17.7169 1.51119L16.7007 0.495496C16.3819 0.175919 15.9557 0 15.5015 0C15.0474 0 14.6217 0.175919 14.3026 0.495496L0.494495 14.3033C0.174161 14.6234 -0.00125341 15.0511 6.75228e-06 15.5058C-0.00125341 15.9625 0.173909 16.3897 0.494495 16.71L14.2897 30.5045C14.6088 30.8241 15.0345 31 15.4889 31C15.9431 31 16.3688 30.8241 16.6881 30.5045L17.704 29.4888C18.3651 28.8277 18.3651 27.7516 17.704 27.0907L6.11986 15.5066Z" fill="white"/>
</svg>
