<svg width="30" height="30" viewBox="0 0 30 30" fill="none" xmlns="http://www.w3.org/2000/svg">
<path d="M0.85125 25.8332L3.96609 28.9927C5.1127 30.1559 6.98485 30.1689 8.1477 29.023L14.9484 22.3182L21.6505 29.1176C22.7978 30.2808 24.67 30.2938 25.8325 29.1472L28.9906 26.0345C30.1538 24.8879 30.1675 23.0158 29.0202 21.8518L22.3177 15.0526L29.1191 8.34867C30.2815 7.20205 30.2959 5.3299 29.1479 4.16597L26.0346 1.0064C24.8874 -0.155964 23.0152 -0.169791 21.8528 0.976103L15.051 7.68085L8.34875 0.880873C7.20141 -0.281616 5.32914 -0.295323 4.16641 0.850572L1.00864 3.96385C-0.154565 5.11119 -0.168633 6.98261 0.978344 8.14654L7.68117 14.9465L0.88155 21.652C-0.281659 22.7979 -0.295728 24.6708 0.85125 25.8332Z" fill="#C05F5F"/>
</svg>
