<svg width="169" height="169" viewBox="0 0 169 169" fill="none" xmlns="http://www.w3.org/2000/svg">
<g clip-path="url(#clip0)">
<path d="M59.3509 132.496L34.138 146.249C32.6585 147.056 31.3288 148.047 30.0916 149.128C44.7914 161.523 63.7672 169 84.5 169C105.08 169 123.934 161.634 138.593 149.409C137.241 148.267 135.774 147.24 134.148 146.431L107.149 132.933C103.661 131.189 101.457 127.624 101.457 123.724V113.131C102.216 112.267 103.084 111.157 104.012 109.847C107.691 104.649 110.475 98.932 112.404 92.9341C115.867 91.8659 118.418 88.6676 118.418 84.8667V73.5597C118.418 71.0725 117.312 68.85 115.593 67.2939V50.9487C115.593 50.9487 118.951 25.5126 84.5032 25.5126C50.0559 25.5126 53.4136 50.9487 53.4136 50.9487V67.2939C51.6917 68.85 50.5884 71.0725 50.5884 73.5597V84.8667C50.5884 87.8449 52.1541 90.466 54.4977 91.9807C57.3229 104.279 64.7207 113.131 64.7207 113.131V123.462C64.7175 127.225 62.6576 130.691 59.3509 132.496Z" fill="#E7ECED"/>
<path d="M85.9444 0.0126441C39.2844 -0.784526 0.809822 36.3955 0.0126524 83.0554C-0.44014 109.512 11.3516 133.29 30.1265 149.103C31.3542 148.031 32.6711 147.049 34.1347 146.252L59.3476 132.499C62.6542 130.694 64.7141 127.228 64.7141 123.459V113.128C64.7141 113.128 57.3132 104.276 54.4912 91.9773C52.1507 90.4627 50.5819 87.8448 50.5819 84.8634V73.5564C50.5819 71.0692 51.6884 68.8467 53.4071 67.2906V50.9454C53.4071 50.9454 50.0494 25.5093 84.4967 25.5093C118.944 25.5093 115.586 50.9454 115.586 50.9454V67.2906C117.308 68.8467 118.411 71.0692 118.411 73.5564V84.8634C118.411 88.6643 115.861 91.8626 112.398 92.9308C110.468 98.9287 107.685 104.646 104.005 109.844C103.077 111.154 102.21 112.264 101.451 113.128V123.721C101.451 127.62 103.654 131.189 107.143 132.93L134.141 146.427C135.761 147.237 137.225 148.261 138.574 149.399C156.781 134.215 168.544 111.511 168.981 85.9444C169.784 39.2844 132.607 0.809814 85.9444 0.0126441Z" fill="#556080"/>
</g>
<defs>
<clipPath id="clip0">
<rect width="169" height="169" fill="white"/>
</clipPath>
</defs>
</svg>
