<svg width="31" height="31" viewBox="0 0 31 31" fill="none" xmlns="http://www.w3.org/2000/svg">
<path d="M30.9005 13.7146C30.8346 13.557 30.7403 13.4137 30.6202 13.2935L26.7465 9.4198C26.2415 8.91605 25.4251 8.91605 24.9201 9.4198C24.4151 9.92482 24.4151 10.7424 24.9201 11.2462L26.5902 12.9163H19.3749C18.6606 12.9163 18.0833 13.495 18.0833 14.208C18.0833 14.921 18.6606 15.4996 19.3749 15.4996H26.5901L24.92 17.1697C24.415 17.6748 24.415 18.4924 24.92 18.9961C25.1719 19.2493 25.5025 19.3746 25.8332 19.3746C26.164 19.3746 26.4946 19.2493 26.7465 18.9961L30.6202 15.1224C30.7403 15.0035 30.8346 14.8602 30.9005 14.7013C31.0309 14.3863 31.0309 14.0298 30.9005 13.7146Z" fill="white"/>
<path d="M21.9583 18.0833C21.244 18.0833 20.6666 18.662 20.6666 19.375V25.8333H15.5V5.16664C15.5 4.59701 15.1254 4.09326 14.579 3.92924L10.093 2.58335H20.6666V9.04169C20.6666 9.75469 21.244 10.3333 21.9583 10.3333C22.6725 10.3333 23.2499 9.75469 23.2499 9.04169V1.2917C23.2499 0.578645 22.6725 0 21.9583 0H1.29164C1.24514 0 1.20379 0.019375 1.15862 0.0245214C1.09789 0.0309999 1.04237 0.0412929 0.984248 0.0555214C0.848623 0.0903963 0.725895 0.143375 0.610977 0.215668C0.582581 0.233771 0.547706 0.235043 0.520581 0.255689C0.510167 0.263499 0.506292 0.277728 0.495939 0.285478C0.355167 0.396521 0.237646 0.532146 0.152396 0.693624C0.134293 0.728499 0.130418 0.765977 0.11625 0.802123C0.0748963 0.90027 0.0297285 0.995873 0.0142285 1.10437C0.00774998 1.14312 0.019375 1.17927 0.0181035 1.21675C0.016832 1.2426 0 1.26585 0 1.29164V27.1249C0 27.7411 0.435271 28.2707 1.0385 28.3908L13.9551 30.9741C14.0391 30.9923 14.1243 31 14.2083 31C14.504 31 14.7947 30.898 15.0272 30.7068C15.3255 30.4614 15.4999 30.0958 15.4999 29.7083V28.4167H21.9583C22.6725 28.4167 23.2499 27.838 23.2499 27.125V19.375C23.2499 18.662 22.6725 18.0833 21.9583 18.0833Z" fill="white"/>
</svg>
