<svg width="40" height="31" viewBox="0 0 40 31" fill="none" xmlns="http://www.w3.org/2000/svg">
<path d="M12.107 0C8.09041 0 4.82272 3.46466 4.82272 7.72327C4.82272 11.9819 8.09041 15.4465 12.107 15.4465C16.1236 15.4465 19.3913 11.9819 19.3913 7.72327C19.3913 3.46466 16.1237 0 12.107 0Z" fill="white"/>
<path d="M28.668 1.10516C28.6516 1.10516 28.6349 1.10524 28.6185 1.10532C26.9328 1.11927 25.3583 1.83099 24.1851 3.10952C23.0325 4.36545 22.4057 6.02233 22.4201 7.77484C22.4346 9.52736 23.0887 11.1736 24.2618 12.4105C25.4442 13.6569 27.0105 14.3414 28.6775 14.3414C28.6942 14.3414 28.711 14.3413 28.7278 14.3412C30.4135 14.3273 31.9879 13.6155 33.1612 12.337C34.3138 11.0811 34.9406 9.42424 34.9262 7.67164C34.8961 4.03987 32.0936 1.10516 28.668 1.10516Z" fill="white"/>
<path d="M28.9753 15.6058H28.3704C25.5535 15.6058 22.9829 16.6768 21.042 18.4321C21.5276 18.8047 21.9899 19.2108 22.4279 19.6488C23.7202 20.9412 24.7351 22.4471 25.4444 24.1245C26.0835 25.635 26.4483 27.2267 26.5333 28.8658H39.9079V26.5376C39.9079 20.5101 35.0036 15.6058 28.9753 15.6058Z" fill="white"/>
<path d="M24.1902 28.8659C23.9697 25.3124 22.1684 22.1868 19.48 20.1836C17.5244 18.726 15.0987 17.8632 12.4712 17.8632H11.7432C5.25739 17.8632 0 23.1206 0 29.6064V31H24.2136V29.6064C24.2136 29.3577 24.2058 29.1106 24.1902 28.8659Z" fill="white"/>
</svg>
