<svg width="40" height="31" viewBox="0 0 40 31" fill="none" xmlns="http://www.w3.org/2000/svg">
<path d="M3.78688 9.55543C4.28598 9.90762 5.79045 10.9536 8.30036 12.6929C10.8103 14.4322 12.7332 15.7714 14.0689 16.7106C14.2157 16.8136 14.5274 17.0373 15.0044 17.3823C15.4814 17.7275 15.8778 18.0064 16.1932 18.2192C16.5089 18.4318 16.8904 18.6704 17.3383 18.9346C17.7861 19.1985 18.2081 19.397 18.6044 19.5284C19.0008 19.6609 19.3677 19.7265 19.7053 19.7265H19.7274H19.7496C20.0872 19.7265 20.4542 19.6608 20.8506 19.5284C21.2468 19.397 21.6692 19.1982 22.1166 18.9346C22.5641 18.6701 22.9457 18.4318 23.2614 18.2192C23.577 18.0064 23.9731 17.7275 24.4503 17.3823C24.9271 17.037 25.2393 16.8136 25.3861 16.7106C26.7362 15.7714 30.1712 13.3861 35.69 9.55497C36.7614 8.80671 37.6566 7.90383 38.3757 6.84694C39.0954 5.79052 39.4548 4.68228 39.4548 3.52284C39.4548 2.55394 39.106 1.72456 38.4087 1.03475C37.7115 0.344788 36.8858 0 35.932 0H3.52261C2.39246 0 1.52274 0.381573 0.913599 1.14472C0.304533 1.90802 0 2.8621 0 4.0069C0 4.9316 0.403782 5.93365 1.21096 7.01244C2.01806 8.0913 2.87699 8.93904 3.78688 9.55543Z" fill="white"/>
<path d="M37.2528 11.911C32.4389 15.1693 28.7836 17.7015 26.2886 19.5071C25.452 20.1233 24.7733 20.6044 24.2521 20.9491C23.7308 21.294 23.0376 21.6463 22.1715 22.0057C21.3056 22.3657 20.4986 22.5452 19.7499 22.5452H19.7275H19.7053C18.9568 22.5452 18.1494 22.3657 17.2835 22.0057C16.4176 21.6463 15.724 21.294 15.2029 20.9491C14.682 20.6044 14.003 20.1233 13.1665 19.5071C11.1848 18.0541 7.53737 15.5217 2.22396 11.911C1.38709 11.3536 0.645851 10.7147 0 9.99561V27.4768C0 28.4461 0.344788 29.275 1.03475 29.9649C1.72456 30.655 2.55402 31 3.52284 31H35.9323C36.9009 31 37.7303 30.655 38.4201 29.9649C39.1103 29.2748 39.4549 28.4462 39.4549 27.4768V9.99561C38.8236 10.6998 38.0899 11.3387 37.2528 11.911Z" fill="white"/>
</svg>
