<svg width="31" height="31" viewBox="0 0 31 31" fill="none" xmlns="http://www.w3.org/2000/svg">
<path d="M29.8928 7.75002H24.3571V1.10716C24.3571 0.495684 23.8615 0 23.25 0H1.10716C0.495684 0 0 0.495684 0 1.10716V26.5714C0 29.0173 1.98274 31 4.42859 31H26.5714C29.0173 31 31 29.0173 31 26.5714V8.85712C31 8.2457 30.5043 7.75002 29.8928 7.75002ZM8.85712 5.53569H15.5C16.1114 5.53569 16.6071 6.03137 16.6071 6.64285C16.6071 7.25433 16.1114 7.75002 15.5 7.75002H8.85712C8.24564 7.75002 7.74995 7.25433 7.74995 6.64285C7.74995 6.03137 8.2457 5.53569 8.85712 5.53569ZM18.8214 26.5714H5.53569C4.92421 26.5714 4.42852 26.0757 4.42852 25.4642C4.42852 24.8528 4.92421 24.3571 5.53569 24.3571H18.8214C19.4329 24.3571 19.9286 24.8528 19.9286 25.4642C19.9286 26.0757 19.4329 26.5714 18.8214 26.5714ZM18.8214 22.1428H5.53569C4.92421 22.1428 4.42852 21.6471 4.42852 21.0357C4.42852 20.4242 4.92421 19.9285 5.53569 19.9285H18.8214C19.4329 19.9285 19.9286 20.4242 19.9286 21.0357C19.9286 21.6471 19.4329 22.1428 18.8214 22.1428ZM18.8214 17.7143H5.53569C4.92421 17.7143 4.42852 17.2186 4.42852 16.6071C4.42852 15.9957 4.92421 15.5 5.53569 15.5H18.8214C19.4329 15.5 19.9286 15.9957 19.9286 16.6071C19.9286 17.2186 19.4329 17.7143 18.8214 17.7143ZM18.8214 13.2857H5.53569C4.92421 13.2857 4.42852 12.79 4.42852 12.1785C4.42852 11.5671 4.92421 11.0714 5.53569 11.0714H18.8214C19.4329 11.0714 19.9286 11.5671 19.9286 12.1785C19.9286 12.79 19.4329 13.2857 18.8214 13.2857ZM28.7857 26.5714C28.7857 27.7943 27.7943 28.7857 26.5714 28.7857C25.3485 28.7857 24.3571 27.7943 24.3571 26.5714V9.96428H28.7857V26.5714H28.7857Z" fill="white"/>
</svg>
