<svg width="30" height="30" viewBox="0 0 294 294">
<path d="M232.071 158.786V134.357C232.071 131.049 230.863 128.186 228.445 125.769C226.028 123.352 223.165 122.143 219.857 122.143H171V73.2857C171 69.9777 169.791 67.115 167.374 64.6975C164.956 62.2801 162.094 61.0714 158.786 61.0714H134.357C131.049 61.0714 128.186 62.2801 125.769 64.6975C123.352 67.115 122.143 69.9777 122.143 73.2857V122.143H73.2857C69.9777 122.143 67.115 123.352 64.6975 125.769C62.2801 128.186 61.0714 131.049 61.0714 134.357V158.786C61.0714 162.094 62.2801 164.956 64.6975 167.374C67.115 169.791 69.9777 171 73.2857 171H122.143V219.857C122.143 223.165 123.352 226.028 125.769 228.445C128.186 230.863 131.049 232.071 134.357 232.071H158.786C162.094 232.071 164.956 230.863 167.374 228.445C169.791 226.028 171 223.165 171 219.857V171H219.857C223.165 171 226.028 169.791 228.445 167.374C230.863 164.956 232.071 162.094 232.071 158.786ZM293.143 146.571C293.143 173.163 286.59 197.687 273.485 220.143C260.381 242.6 242.6 260.381 220.143 273.485C197.687 286.59 173.163 293.143 146.571 293.143C119.98 293.143 95.4559 286.59 72.9994 273.485C50.543 260.381 32.7623 242.6 19.6574 220.143C6.55246 197.687 0 173.163 0 146.571C0 119.98 6.55246 95.4559 19.6574 72.9994C32.7623 50.543 50.543 32.7623 72.9994 19.6574C95.4559 6.55246 119.98 0 146.571 0C173.163 0 197.687 6.55246 220.143 19.6574C242.6 32.7623 260.381 50.543 273.485 72.9994C286.59 95.4559 293.143 119.98 293.143 146.571Z" fill="#3F51B5"/>
</svg>
