<svg width="18" height="26" viewBox="0 0 18 26" fill="none" xmlns="http://www.w3.org/2000/svg">
<path d="M15 0H3C1.34315 0 0 1.34315 0 3V23C0 24.6569 1.34315 26 3 26H15C16.6569 26 18 24.6569 18 23V3C18 1.34315 16.6569 0 15 0Z" fill="#D8E1EF"/>
<path d="M13.42 0L11.71 1.71C11.6166 1.80268 11.5057 1.87601 11.3839 1.92577C11.2621 1.97554 11.1316 2.00076 11 2H7C6.8684 2.00076 6.73793 1.97554 6.6161 1.92577C6.49426 1.87601 6.38344 1.80268 6.29 1.71L4.58 0H13.42Z" fill="#0593FF"/>
<path d="M13 9C12.3986 9.05578 11.7931 8.94984 11.2463 8.69316C10.6996 8.43647 10.2313 8.03836 9.89 7.54C9.80553 7.37695 9.6778 7.24031 9.52081 7.14505C9.36382 7.0498 9.18363 6.99961 9 7C8.81571 6.99682 8.63413 7.04463 8.47531 7.13816C8.31649 7.23169 8.1866 7.36729 8.1 7.53C7.7615 8.02938 7.2955 8.42907 6.75038 8.68756C6.20526 8.94606 5.60089 9.05393 5 9C4.73478 9 4.48043 9.10535 4.29289 9.29289C4.10536 9.48043 4 9.73478 4 10V12.91C3.99967 14.0252 4.31014 15.1184 4.89659 16.067C5.48303 17.0155 6.32223 17.7819 7.32 18.28L8.55 18.89C8.68958 18.9603 8.8437 18.997 9 18.997C9.1563 18.997 9.31042 18.9603 9.45 18.89L10.68 18.28C11.6778 17.7819 12.517 17.0155 13.1034 16.067C13.6899 15.1184 14.0003 14.0252 14 12.91V10C14 9.73478 13.8946 9.48043 13.7071 9.29289C13.5196 9.10535 13.2652 9 13 9Z" fill="#0593FF"/>
</svg>
