<svg width="512" height="244" viewBox="0 0 512 244" fill="none" xmlns="http://www.w3.org/2000/svg">
<path d="M504.116 2.46601C499.261 -0.151995 493.36 0.109008 488.752 3.14101L488.305 3.43601C465.86 18.165 438.509 23.937 411.293 19.684C401.399 18.138 391.176 17.355 380.905 17.355C374.17 17.355 367.28 18.05 360.425 19.422C343.82 22.745 327.662 30.292 313.702 41.244L256 86.514L198.298 41.244C184.338 30.292 168.181 22.745 151.574 19.422C144.72 18.05 137.83 17.355 131.095 17.355C120.824 17.355 110.601 18.138 100.707 19.684C73.493 23.933 46.142 18.166 23.714 3.448L23.248 3.14101C18.641 0.109008 12.739 -0.150995 7.884 2.46601C3.027 5.08301 0 10.153 0 15.67V145.351C0 184.428 37.071 218.243 92.247 229.496C114.293 233.993 137.327 232.022 158.865 223.8C162.056 222.581 165.357 221.561 168.676 220.766C185.996 216.619 204.466 220.467 219.358 231.33C219.378 231.344 219.402 231.361 219.427 231.38C230.368 239.347 243.184 243.329 256 243.329C268.832 243.329 281.664 239.336 292.614 231.35C307.927 220.181 326.999 216.471 344.946 221.173C347.707 221.896 350.462 222.779 353.134 223.8C374.67 232.023 397.706 233.995 419.751 229.496C474.929 218.243 512 184.428 512 145.351V15.67C512 10.153 508.973 5.08301 504.116 2.46601ZM482.002 145.351H482C482 169.393 453.937 191.907 413.758 200.101C397.3 203.455 380.039 201.957 363.833 195.772C360.15 194.366 356.353 193.148 352.548 192.152C325.852 185.156 297.563 190.609 274.937 207.111C263.611 215.373 248.39 215.373 237.064 207.111C237.044 207.097 237.019 207.079 236.994 207.06C214.993 191.032 187.545 185.394 161.687 191.591C157.114 192.686 152.565 194.093 148.166 195.772C131.96 201.96 114.695 203.456 98.241 200.101C58.062 191.906 30 169.393 30 145.351V40.551C53.466 50.251 79.475 53.364 105.338 49.324C113.704 48.017 122.37 47.354 131.095 47.354C135.858 47.354 140.768 47.853 145.687 48.837C157.709 51.243 169.499 56.779 179.781 64.847L246.742 117.38C252.178 121.644 259.824 121.644 265.26 117.38L332.221 64.847C342.503 56.78 354.292 51.243 366.314 48.837C371.234 47.853 376.144 47.354 380.907 47.354C389.632 47.354 398.298 48.017 406.664 49.324C432.524 53.364 458.529 50.251 482.002 40.549V145.351V145.351Z" fill="#F5F5F5" fill-opacity="0.2"/>
<path d="M207.444 118.627C206.178 117.507 176 91.196 137.761 91.196C99.522 91.196 69.344 117.507 68.078 118.627C64.86 121.475 63.017 125.565 63.017 129.861C63.017 134.157 64.86 138.248 68.078 141.095C69.344 142.215 99.522 168.526 137.761 168.526C176 168.526 206.178 142.215 207.444 141.095C210.662 138.247 212.505 134.157 212.505 129.861C212.505 125.565 210.662 121.475 207.444 118.627ZM137.762 138.526C125.521 138.526 114.07 134.373 105.241 129.862C114.072 125.347 125.521 121.196 137.762 121.196C150.003 121.196 161.45 125.347 170.282 129.861C161.45 134.375 150.002 138.526 137.762 138.526Z" fill="#F5F5F5" fill-opacity="0.2"/>
<path d="M443.922 118.627C442.656 117.507 412.478 91.196 374.239 91.196C336 91.196 305.821 117.507 304.556 118.627C301.338 121.475 299.495 125.565 299.495 129.861C299.495 134.157 301.338 138.248 304.556 141.095C305.822 142.215 336 168.526 374.239 168.526C412.478 168.526 442.656 142.215 443.922 141.095C447.14 138.247 448.983 134.157 448.983 129.861C448.983 125.565 447.14 121.474 443.922 118.627ZM374.238 138.526C361.997 138.526 350.546 134.373 341.717 129.862C350.548 125.347 361.997 121.196 374.238 121.196C386.479 121.196 397.926 125.347 406.758 129.861C397.927 134.375 386.479 138.526 374.238 138.526Z" fill="#F5F5F5" fill-opacity="0.2"/>
</svg>
