<svg width="35" height="32" viewBox="0 0 35 32" fill="none" xmlns="http://www.w3.org/2000/svg">
<path d="M29.5385 0H14.7692C12.0503 0 9.84615 2.20414 9.84615 4.92308V27.0769C9.84615 29.7959 12.0503 32 14.7692 32H29.5385C32.2574 32 34.4615 29.7959 34.4615 27.0769V4.92308C34.4615 2.20414 32.2574 0 29.5385 0Z" fill="#D8E1EF"/>
<path d="M25.4892 15.1262L20.5662 10.2031C20.3344 9.97133 20.0201 9.84113 19.6923 9.84113C19.3646 9.84113 19.0502 9.97133 18.8185 10.2031C18.5867 10.4348 18.4565 10.7492 18.4565 11.0769C18.4565 11.4047 18.5867 11.719 18.8185 11.9508L21.6492 14.7692H1.23077C0.904349 14.7692 0.591298 14.8989 0.360484 15.1297C0.12967 15.3605 0 15.6736 0 16C0 16.3264 0.12967 16.6395 0.360484 16.8703C0.591298 17.1011 0.904349 17.2308 1.23077 17.2308H21.6492L18.8185 20.0492C18.7031 20.1637 18.6115 20.2998 18.5491 20.4498C18.4866 20.5997 18.4544 20.7606 18.4544 20.9231C18.4544 21.0856 18.4866 21.2464 18.5491 21.3964C18.6115 21.5464 18.7031 21.6825 18.8185 21.7969C18.9329 21.9123 19.069 22.0039 19.219 22.0663C19.369 22.1288 19.5298 22.161 19.6923 22.161C19.8548 22.161 20.0157 22.1288 20.1656 22.0663C20.3156 22.0039 20.4517 21.9123 20.5662 21.7969L25.4892 16.8739C25.6046 16.7594 25.6962 16.6233 25.7586 16.4733C25.8211 16.3234 25.8533 16.1625 25.8533 16C25.8533 15.8375 25.8211 15.6767 25.7586 15.5267C25.6962 15.3767 25.6046 15.2406 25.4892 15.1262Z" fill="#0593FF"/>
</svg>
