<svg width="88" height="88" viewBox="0 0 88 88" fill="none" xmlns="http://www.w3.org/2000/svg">
<path d="M81.125 57.0598V39.2943L51.261 57.8641C49.0213 59.2566 46.511 59.9528 44 59.9528C41.489 59.9528 38.9787 59.2566 36.739 57.8641L6.875 39.2943V74.248C6.875 78.0386 9.95935 81.123 13.75 81.123H74.25C78.0406 81.123 81.125 78.0386 81.125 74.248C81.125 72.3493 82.6638 70.8105 84.5625 70.8105C86.4612 70.8105 88 72.3493 88 74.248C88 81.8293 81.832 87.998 74.25 87.998H13.75C6.16803 87.998 0 81.8293 0 74.248V33.0987C0 28.3856 2.37 24.0558 6.34058 21.5159L15.6863 15.5379C17.2855 14.5147 19.4118 14.982 20.4343 16.5812C21.4575 18.1805 20.9902 20.3061 19.391 21.3293L10.0453 27.3073C8.56824 28.2526 7.53497 29.6934 7.1026 31.3397L40.3698 52.0264C42.6089 53.4189 45.3911 53.4189 47.6302 52.0264L80.8927 31.343C80.4576 29.7048 79.4284 28.2708 77.9574 27.3288L68.5862 21.3286C66.9876 20.3048 66.521 18.1785 67.5449 16.5799C68.5687 14.9807 70.695 14.5154 72.2936 15.5386L81.6648 21.5394C85.632 24.0793 88 28.4084 88 33.1188V57.0598C88 58.9585 86.4612 60.4973 84.5625 60.4973C82.6638 60.4973 81.125 58.9585 81.125 57.0598ZM26.2969 35.2317V21.4817C26.2969 17.0935 29.6041 13.4653 33.8567 12.9524V10.1379C33.8567 4.54797 38.4825 0 44.1692 0C49.8552 0 54.4817 4.54797 54.4817 10.1379V12.9517C58.7369 13.462 62.0469 17.0915 62.0469 21.4817V35.2317C62.0469 37.1304 60.5081 38.6692 58.6094 38.6692H29.7344C27.8357 38.6692 26.2969 37.1304 26.2969 35.2317ZM40.7317 10.1379V12.8879H47.6067V10.1379C47.6067 8.33862 46.0645 6.875 44.1692 6.875C42.2732 6.875 40.7317 8.33862 40.7317 10.1379ZM33.1719 31.7942H55.1719V21.4817C55.1719 20.5344 54.4011 19.7629 53.4531 19.7629H34.8906C33.9426 19.7629 33.1719 20.5344 33.1719 21.4817V31.7942Z" fill="#3F50B5"/>
</svg>
