<svg width="32" height="32" viewBox="0 0 32 32" fill="none" xmlns="http://www.w3.org/2000/svg">
<path d="M29.83 15.45L27.83 12.45C27.7394 12.3124 27.6162 12.1994 27.4715 12.1209C27.3267 12.0424 27.1647 12.0009 27 12H14.74C13.8884 10.777 12.6688 9.85772 11.2585 9.37592C9.8483 8.89412 8.32112 8.87496 6.89924 9.32123C5.47737 9.7675 4.23503 10.6559 3.35304 11.8571C2.47105 13.0584 1.99544 14.5097 1.99544 16C1.99544 17.4903 2.47105 18.9416 3.35304 20.1429C4.23503 21.3441 5.47737 22.2325 6.89924 22.6788C8.32112 23.125 9.8483 23.1059 11.2585 22.6241C12.6688 22.1423 13.8884 21.223 14.74 20H17C17.1316 20.0008 17.2621 19.9755 17.3839 19.9258C17.5057 19.876 17.6166 19.8027 17.71 19.71L19 18.41L20.29 19.71C20.383 19.8037 20.4936 19.8781 20.6154 19.9289C20.7373 19.9797 20.868 20.0058 21 20.0058C21.132 20.0058 21.2627 19.9797 21.3846 19.9289C21.5064 19.8781 21.617 19.8037 21.71 19.71L23 18.41L24.29 19.71C24.3834 19.8027 24.4943 19.876 24.6161 19.9258C24.7379 19.9755 24.8684 20.0008 25 20H27C27.1647 19.9991 27.3267 19.9576 27.4715 19.8791C27.6162 19.8006 27.7394 19.6876 27.83 19.55L29.83 16.55C29.9375 16.3867 29.9948 16.1955 29.9948 16C29.9948 15.8045 29.9375 15.6133 29.83 15.45Z" fill="#0593FF"/>
<path d="M9 19C8.40666 19 7.82664 18.8241 7.33329 18.4944C6.83994 18.1648 6.45543 17.6962 6.22836 17.1481C6.0013 16.5999 5.94189 15.9967 6.05765 15.4147C6.1734 14.8328 6.45912 14.2982 6.87868 13.8787C7.29824 13.4591 7.83279 13.1734 8.41473 13.0576C8.99667 12.9419 9.59987 13.0013 10.1481 13.2284C10.6962 13.4554 11.1648 13.8399 11.4944 14.3333C11.8241 14.8266 12 15.4067 12 16C12 16.7957 11.6839 17.5587 11.1213 18.1213C10.5587 18.6839 9.79565 19 9 19Z" fill="#0E6AE0"/>
</svg>
