<svg width="30" height="30" viewBox="0 0 30 30" fill="none" xmlns="http://www.w3.org/2000/svg">
<path d="M17 13H13C12.7348 13 12.4804 12.8946 12.2929 12.7071C12.1054 12.5196 12 12.2652 12 12V10C12 9.20435 12.3161 8.44129 12.8787 7.87868C13.4413 7.31607 14.2044 7 15 7C15.7956 7 16.5587 7.31607 17.1213 7.87868C17.6839 8.44129 18 9.20435 18 10V12C18 12.2652 17.8946 12.5196 17.7071 12.7071C17.5196 12.8946 17.2652 13 17 13ZM14 11H16V10C16 9.73478 15.8946 9.48043 15.7071 9.29289C15.5196 9.10536 15.2652 9 15 9C14.7348 9 14.4804 9.10536 14.2929 9.29289C14.1054 9.48043 14 9.73478 14 10V11Z" fill="#0E6AE0"/>
<path d="M18 11H12C10.3431 11 9 12.3431 9 14V20C9 21.6569 10.3431 23 12 23H18C19.6569 23 21 21.6569 21 20V14C21 12.3431 19.6569 11 18 11Z" fill="#0593FF"/>
<path d="M17 16C17.0021 15.6484 16.9115 15.3025 16.7373 14.9971C16.5631 14.6917 16.3115 14.4376 16.0079 14.2605C15.7042 14.0833 15.3592 13.9893 15.0076 13.988C14.656 13.9867 14.3103 14.078 14.0053 14.2529C13.7003 14.4278 13.4467 14.68 13.2703 14.984C13.0938 15.2881 13.0006 15.6334 13 15.9849C12.9995 16.3365 13.0917 16.682 13.2672 16.9866C13.4428 17.2913 13.6955 17.5442 14 17.72V19C14 19.2652 14.1054 19.5196 14.2929 19.7071C14.4804 19.8946 14.7348 20 15 20C15.2652 20 15.5196 19.8946 15.7071 19.7071C15.8946 19.5196 16 19.2652 16 19V17.72C16.3023 17.5455 16.5536 17.2949 16.7291 16.9932C16.9045 16.6914 16.9979 16.349 17 16Z" fill="#0E6AE0"/>
<path d="M15 6C14.7348 6 14.4804 5.89464 14.2929 5.70711C14.1054 5.51957 14 5.26522 14 5V3C14 2.73478 14.1054 2.48043 14.2929 2.29289C14.4804 2.10536 14.7348 2 15 2C15.2652 2 15.5196 2.10536 15.7071 2.29289C15.8946 2.48043 16 2.73478 16 3V5C16 5.26522 15.8946 5.51957 15.7071 5.70711C15.5196 5.89464 15.2652 6 15 6Z" fill="#D8E1EF"/>
<path d="M20 11C19.8684 11.0008 19.7379 10.9755 19.6161 10.9258C19.4943 10.876 19.3834 10.8027 19.29 10.71C19.1963 10.617 19.1219 10.5064 19.0711 10.3846C19.0203 10.2627 18.9942 10.132 18.9942 10C18.9942 9.86799 19.0203 9.73728 19.0711 9.61542C19.1219 9.49356 19.1963 9.38296 19.29 9.29L23 5.59V4C23 3.73478 23.1054 3.48043 23.2929 3.29289C23.4804 3.10536 23.7348 3 24 3C24.2652 3 24.5196 3.10536 24.7071 3.29289C24.8946 3.48043 25 3.73478 25 4V6C25.0008 6.13161 24.9755 6.26207 24.9258 6.38391C24.876 6.50574 24.8027 6.61656 24.71 6.71L20.71 10.71C20.6166 10.8027 20.5057 10.876 20.3839 10.9258C20.2621 10.9755 20.1316 11.0008 20 11Z" fill="#D8E1EF"/>
<path d="M10 11C9.86839 11.0008 9.73793 10.9755 9.6161 10.9258C9.49426 10.876 9.38344 10.8027 9.29 10.71L5.29 6.71C5.19732 6.61656 5.12399 6.50574 5.07423 6.38391C5.02447 6.26207 4.99924 6.13161 5 6V4C5 3.73478 5.10536 3.48043 5.29289 3.29289C5.48043 3.10536 5.73478 3 6 3C6.26522 3 6.51957 3.10536 6.70711 3.29289C6.89464 3.48043 7 3.73478 7 4V5.59L10.71 9.29C10.8037 9.38296 10.8781 9.49356 10.9289 9.61542C10.9797 9.73728 11.0058 9.86799 11.0058 10C11.0058 10.132 10.9797 10.2627 10.9289 10.3846C10.8781 10.5064 10.8037 10.617 10.71 10.71C10.6166 10.8027 10.5057 10.876 10.3839 10.9258C10.2621 10.9755 10.1316 11.0008 10 11Z" fill="#D8E1EF"/>
<path d="M24 27C23.7348 27 23.4804 26.8946 23.2929 26.7071C23.1054 26.5196 23 26.2652 23 26V24.41L21.29 22.71C21.1017 22.5217 20.9959 22.2663 20.9959 22C20.9959 21.7337 21.1017 21.4783 21.29 21.29C21.4783 21.1017 21.7337 20.9959 22 20.9959C22.2663 20.9959 22.5217 21.1017 22.71 21.29L24.71 23.29C24.8027 23.3834 24.876 23.4943 24.9258 23.6161C24.9755 23.7379 25.0008 23.8684 25 24V26C25 26.2652 24.8946 26.5196 24.7071 26.7071C24.5196 26.8946 24.2652 27 24 27Z" fill="#D8E1EF"/>
<path d="M6 27C5.73478 27 5.48043 26.8946 5.29289 26.7071C5.10536 26.5196 5 26.2652 5 26V24C4.99924 23.8684 5.02447 23.7379 5.07423 23.6161C5.12399 23.4943 5.19732 23.3834 5.29 23.29L7.29 21.29C7.38324 21.1968 7.49393 21.1228 7.61575 21.0723C7.73757 21.0219 7.86814 20.9959 8 20.9959C8.13186 20.9959 8.26243 21.0219 8.38425 21.0723C8.50607 21.1228 8.61676 21.1968 8.71 21.29C8.80324 21.3832 8.8772 21.4939 8.92766 21.6158C8.97812 21.7376 9.00409 21.8681 9.00409 22C9.00409 22.1319 8.97812 22.2624 8.92766 22.3843C8.8772 22.5061 8.80324 22.6168 8.71 22.71L7 24.41V26C7 26.2652 6.89464 26.5196 6.70711 26.7071C6.51957 26.8946 6.26522 27 6 27Z" fill="#D8E1EF"/>
<path d="M15 28C14.7348 28 14.4804 27.8946 14.2929 27.7071C14.1054 27.5196 14 27.2652 14 27V25C14 24.7348 14.1054 24.4804 14.2929 24.2929C14.4804 24.1054 14.7348 24 15 24C15.2652 24 15.5196 24.1054 15.7071 24.2929C15.8946 24.4804 16 24.7348 16 25V27C16 27.2652 15.8946 27.5196 15.7071 27.7071C15.5196 27.8946 15.2652 28 15 28Z" fill="#D8E1EF"/>
<path d="M27 16H23C22.7348 16 22.4804 15.8946 22.2929 15.7071C22.1054 15.5196 22 15.2652 22 15C22 14.7348 22.1054 14.4804 22.2929 14.2929C22.4804 14.1054 22.7348 14 23 14H27C27.2652 14 27.5196 14.1054 27.7071 14.2929C27.8946 14.4804 28 14.7348 28 15C28 15.2652 27.8946 15.5196 27.7071 15.7071C27.5196 15.8946 27.2652 16 27 16Z" fill="#D8E1EF"/>
<path d="M7 16H3C2.73478 16 2.48043 15.8946 2.29289 15.7071C2.10536 15.5196 2 15.2652 2 15C2 14.7348 2.10536 14.4804 2.29289 14.2929C2.48043 14.1054 2.73478 14 3 14H7C7.26522 14 7.51957 14.1054 7.70711 14.2929C7.89464 14.4804 8 14.7348 8 15C8 15.2652 7.89464 15.5196 7.70711 15.7071C7.51957 15.8946 7.26522 16 7 16V16Z" fill="#D8E1EF"/>
<path d="M24 5.00001C23.5372 5.00196 23.088 4.84335 22.7291 4.55119C22.3701 4.25904 22.1236 3.85144 22.0315 3.39788C21.9395 2.94431 22.0076 2.47285 22.2242 2.06387C22.4408 1.65488 22.7926 1.33369 23.2195 1.15504C23.6465 0.97639 24.1222 0.951339 24.5655 1.08416C25.0089 1.21698 25.3924 1.49945 25.6508 1.88342C25.9092 2.26739 26.0265 2.72908 25.9825 3.18981C25.9386 3.65054 25.7363 4.08178 25.41 4.41001C25.0366 4.7856 24.5296 4.99778 24 5.00001V5.00001Z" fill="#D8E1EF"/>
<path d="M6 5.00001C5.53719 5.00196 5.08802 4.84335 4.72907 4.55119C4.37012 4.25904 4.1236 3.85144 4.03153 3.39788C3.93947 2.94431 4.00756 2.47285 4.22419 2.06387C4.44083 1.65488 4.7926 1.33369 5.21955 1.15504C5.64649 0.97639 6.12218 0.951339 6.56553 1.08416C7.00888 1.21698 7.39244 1.49945 7.65083 1.88342C7.90923 2.26739 8.02646 2.72908 7.98254 3.18981C7.93862 3.65054 7.73628 4.08178 7.41 4.41001C7.03665 4.7856 6.52957 4.99778 6 5.00001Z" fill="#D8E1EF"/>
<path d="M24 29C23.5372 29.002 23.088 28.8433 22.7291 28.5512C22.3701 28.259 22.1236 27.8514 22.0315 27.3979C21.9395 26.9443 22.0076 26.4729 22.2242 26.0639C22.4408 25.6549 22.7926 25.3337 23.2195 25.155C23.6465 24.9764 24.1222 24.9513 24.5655 25.0842C25.0089 25.217 25.3924 25.4994 25.6508 25.8834C25.9092 26.2674 26.0265 26.7291 25.9825 27.1898C25.9386 27.6505 25.7363 28.0818 25.41 28.41C25.0366 28.7856 24.5296 28.9978 24 29V29Z" fill="#D8E1EF"/>
<path d="M6 29C5.53719 29.002 5.08802 28.8433 4.72907 28.5512C4.37012 28.259 4.1236 27.8514 4.03153 27.3979C3.93947 26.9443 4.00756 26.4729 4.22419 26.0639C4.44083 25.6549 4.7926 25.3337 5.21955 25.155C5.64649 24.9764 6.12218 24.9513 6.56553 25.0842C7.00888 25.217 7.39244 25.4994 7.65083 25.8834C7.90923 26.2674 8.02646 26.7291 7.98254 27.1898C7.93862 27.6505 7.73628 28.0818 7.41 28.41C7.03665 28.7856 6.52957 28.9978 6 29V29Z" fill="#D8E1EF"/>
<path d="M28 17C29.1046 17 30 16.1046 30 15C30 13.8954 29.1046 13 28 13C26.8954 13 26 13.8954 26 15C26 16.1046 26.8954 17 28 17Z" fill="#D8E1EF"/>
<path d="M2 17C3.10457 17 4 16.1046 4 15C4 13.8954 3.10457 13 2 13C0.89543 13 0 13.8954 0 15C0 16.1046 0.89543 17 2 17Z" fill="#D8E1EF"/>
<path d="M15 30C14.6044 30 14.2178 29.8827 13.8889 29.6629C13.56 29.4432 13.3036 29.1308 13.1522 28.7654C13.0009 28.3999 12.9613 27.9978 13.0384 27.6098C13.1156 27.2219 13.3061 26.8655 13.5858 26.5858C13.8655 26.3061 14.2219 26.1156 14.6098 26.0384C14.9978 25.9613 15.3999 26.0009 15.7654 26.1522C16.1308 26.3036 16.4432 26.56 16.6629 26.8889C16.8827 27.2178 17 27.6044 17 28C17 28.5304 16.7893 29.0391 16.4142 29.4142C16.0391 29.7893 15.5304 30 15 30V30Z" fill="#D8E1EF"/>
<path d="M15 4C14.6044 4 14.2178 3.8827 13.8889 3.66294C13.56 3.44318 13.3036 3.13082 13.1522 2.76537C13.0009 2.39992 12.9613 1.99778 13.0384 1.60982C13.1156 1.22186 13.3061 0.865492 13.5858 0.585787C13.8655 0.306082 14.2219 0.115601 14.6098 0.0384303C14.9978 -0.0387401 15.3999 0.000866562 15.7654 0.152242C16.1308 0.303617 16.4432 0.559962 16.6629 0.88886C16.8827 1.21776 17 1.60444 17 2C17 2.53043 16.7893 3.03914 16.4142 3.41421C16.0391 3.78929 15.5304 4 15 4V4Z" fill="#D8E1EF"/>
</svg>
